<svg width="256" height="256" viewBox="0 0 256 256" fill="none" xmlns="http://www.w3.org/2000/svg">
<g clip-path="url(#clip0_401_2)">
<path d="M211 256H45C20.1 256 0 235.9 0 211V45C0 20.1 20.1 0 45 0H211C235.9 0 256 20.1 256 45V211C256 235.9 235.9 256 211 256Z" fill="#004656"/>
<rect x="60.6614" y="33.8" width="88.4421" height="52.6" rx="10" fill="#00323A"/>
<rect x="60.6614" y="100.3" width="88.4421" height="52.6" rx="10" fill="#00323A"/>
<rect x="104.678" y="169.6" width="44.425" height="52.6" rx="10" fill="#00323A"/>
<path d="M31.832 72.6L38.024 63.312L32.228 54.744H37.916L39.752 57.624C40.04 58.128 40.352 58.644 40.688 59.172C41.024 59.676 41.336 60.18 41.624 60.684H41.768C41.984 60.18 42.224 59.664 42.488 59.136C42.776 58.608 43.028 58.104 43.244 57.624L44.828 54.744H50.372L44.54 63.924L50.732 72.6H45.044L42.992 69.648C42.656 69.144 42.308 68.628 41.948 68.1C41.612 67.572 41.276 67.056 40.94 66.552H40.796C40.532 67.056 40.256 67.572 39.968 68.1C39.68 68.604 39.404 69.12 39.14 69.648L37.376 72.6H31.832ZM119.364 58.416V54.672H135.924V58.416H119.364ZM119.364 66.768V63.024H135.924V66.768H119.364ZM172.292 72.6V59.244C172.292 58.524 172.316 57.696 172.364 56.76C172.412 55.8 172.448 54.96 172.472 54.24H172.328C171.944 54.864 171.524 55.5 171.068 56.148C170.636 56.796 170.228 57.456 169.844 58.128L166.388 63.096H180.104V67.128H161.276V63.492L170.816 49.74H177.224V72.6H172.292ZM183.69 72.6V69.576C185.874 67.728 187.782 66.06 189.414 64.572C191.07 63.06 192.354 61.68 193.266 60.432C194.178 59.16 194.634 57.984 194.634 56.904C194.634 55.776 194.298 54.924 193.626 54.348C192.978 53.748 192.066 53.448 190.89 53.448C189.978 53.448 189.138 53.688 188.37 54.168C187.626 54.624 186.93 55.164 186.282 55.788L183.438 52.944C184.614 51.72 185.826 50.808 187.074 50.208C188.346 49.608 189.858 49.308 191.61 49.308C193.194 49.308 194.586 49.608 195.786 50.208C197.01 50.808 197.958 51.66 198.63 52.764C199.326 53.844 199.674 55.116 199.674 56.58C199.674 57.876 199.278 59.184 198.486 60.504C197.718 61.824 196.686 63.156 195.39 64.5C194.118 65.82 192.75 67.128 191.286 68.424C191.934 68.352 192.642 68.292 193.41 68.244C194.178 68.172 194.85 68.136 195.426 68.136H200.862V72.6H183.69Z" fill="white"/>
<path d="M35.648 146.084C35.12 146.084 34.628 146.048 34.172 145.976C33.716 145.904 33.296 145.82 32.912 145.724L33.848 141.692C34.088 141.764 34.328 141.812 34.568 141.836C34.808 141.884 35.036 141.908 35.252 141.908C36.284 141.908 37.088 141.68 37.664 141.224C38.264 140.792 38.708 140.24 38.996 139.568L39.356 138.632L31.616 121.244H36.872L39.86 128.912C40.196 129.752 40.508 130.628 40.796 131.54C41.084 132.428 41.372 133.34 41.66 134.276H41.804C42.044 133.388 42.308 132.488 42.596 131.576C42.884 130.664 43.16 129.776 43.424 128.912L46.052 121.244H51.056L44 139.28C43.448 140.768 42.8 142.016 42.056 143.024C41.336 144.032 40.46 144.788 39.428 145.292C38.42 145.82 37.16 146.084 35.648 146.084ZM119.364 124.916V121.172H135.924V124.916H119.364ZM119.364 133.268V129.524H135.924V133.268H119.364ZM165.164 146.084C164.636 146.084 164.144 146.048 163.688 145.976C163.232 145.904 162.812 145.82 162.428 145.724L163.364 141.692C163.604 141.764 163.844 141.812 164.084 141.836C164.324 141.884 164.552 141.908 164.768 141.908C165.8 141.908 166.604 141.68 167.18 141.224C167.78 140.792 168.224 140.24 168.512 139.568L168.872 138.632L161.132 121.244H166.388L169.376 128.912C169.712 129.752 170.024 130.628 170.312 131.54C170.6 132.428 170.888 133.34 171.176 134.276H171.32C171.56 133.388 171.824 132.488 172.112 131.576C172.4 130.664 172.676 129.776 172.94 128.912L175.568 121.244H180.572L173.516 139.28C172.964 140.768 172.316 142.016 171.572 143.024C170.852 144.032 169.976 144.788 168.944 145.292C167.936 145.82 166.676 146.084 165.164 146.084Z" fill="white"/>
<path d="M34.676 205.6V187.744H38.996L39.428 191.632H39.536C40.424 190.168 41.492 189.088 42.74 188.392C44.012 187.672 45.356 187.312 46.772 187.312C47.564 187.312 48.2 187.372 48.68 187.492C49.184 187.612 49.7 187.792 50.228 188.032L49.148 192.46C48.596 192.292 48.092 192.172 47.636 192.1C47.204 192.004 46.652 191.956 45.98 191.956C44.876 191.956 43.784 192.28 42.704 192.928C41.648 193.576 40.736 194.704 39.968 196.312V205.6H34.676ZM63.9659 206.032C62.1179 206.032 60.4379 205.672 58.9259 204.952C57.4379 204.208 56.2499 203.14 55.3619 201.748C54.4979 200.332 54.0659 198.64 54.0659 196.672C54.0659 194.728 54.5099 193.06 55.3979 191.668C56.2859 190.252 57.4379 189.172 58.8539 188.428C60.2699 187.684 61.7699 187.312 63.3539 187.312C65.2019 187.312 66.7499 187.696 67.9979 188.464C69.2459 189.208 70.1819 190.228 70.8059 191.524C71.4539 192.796 71.7779 194.248 71.7779 195.88C71.7779 196.36 71.7419 196.828 71.6699 197.284C71.6219 197.716 71.5739 198.04 71.5259 198.256H57.9899V194.692H67.9619L67.1339 195.7C67.1339 194.26 66.8219 193.18 66.1979 192.46C65.5979 191.716 64.7099 191.344 63.5339 191.344C62.6699 191.344 61.9139 191.536 61.2659 191.92C60.6179 192.304 60.1139 192.892 59.7539 193.684C59.3939 194.476 59.2139 195.472 59.2139 196.672C59.2139 197.896 59.4299 198.904 59.8619 199.696C60.2939 200.464 60.9179 201.04 61.7339 201.424C62.5499 201.808 63.5339 202 64.6859 202C65.5019 202 66.2699 201.892 66.9899 201.676C67.7339 201.46 68.5019 201.148 69.2939 200.74L71.0579 203.944C70.0259 204.592 68.8859 205.108 67.6379 205.492C66.3899 205.852 65.1659 206.032 63.9659 206.032ZM84.3279 206.032C82.7439 206.032 81.1719 205.768 79.6119 205.24C78.0519 204.688 76.7079 204.04 75.5799 203.296L77.8479 199.984C78.9279 200.68 80.0679 201.208 81.2679 201.568C82.4919 201.928 83.7519 202.108 85.0479 202.108C86.0319 202.108 86.7519 201.964 87.2079 201.676C87.6639 201.364 87.8919 201.004 87.8919 200.596C87.8919 200.332 87.8199 200.116 87.6759 199.948C87.5559 199.756 87.3279 199.588 86.9919 199.444C86.6799 199.276 86.2359 199.12 85.6599 198.976C85.1079 198.832 84.3879 198.664 83.4999 198.472C81.0759 197.944 79.3359 197.224 78.2799 196.312C77.2239 195.4 76.6959 194.26 76.6959 192.892C76.6959 191.212 77.4279 189.868 78.8919 188.86C80.3559 187.828 82.3599 187.312 84.9039 187.312C86.5119 187.312 87.9639 187.576 89.2599 188.104C90.5799 188.608 91.7079 189.16 92.6439 189.76L90.2679 192.928C89.3799 192.376 88.4319 191.956 87.4239 191.668C86.4159 191.38 85.4199 191.236 84.4359 191.236C83.8839 191.236 83.4279 191.296 83.0679 191.416C82.7079 191.512 82.4319 191.68 82.2399 191.92C82.0479 192.136 81.9519 192.376 81.9519 192.64C81.9519 193.12 82.2639 193.48 82.8879 193.72C83.5119 193.936 84.5799 194.212 86.0919 194.548C87.9159 194.956 89.3439 195.424 90.3759 195.952C91.4079 196.48 92.1159 197.092 92.4999 197.788C92.9079 198.46 93.1119 199.288 93.1119 200.272C93.1119 201.352 92.7759 202.324 92.1039 203.188C91.4559 204.052 90.4719 204.748 89.1519 205.276C87.8559 205.78 86.2479 206.032 84.3279 206.032ZM119.364 191.416V187.672H135.924V191.416H119.364ZM119.364 199.768V196.024H135.924V199.768H119.364ZM170.06 206.032C168.764 206.032 167.576 205.888 166.496 205.6C165.44 205.336 164.492 204.964 163.652 204.484C162.812 204.004 162.104 203.44 161.528 202.792L163.976 199.444C164.744 200.116 165.608 200.668 166.568 201.1C167.528 201.532 168.524 201.748 169.556 201.748C170.372 201.748 171.104 201.652 171.752 201.46C172.4 201.244 172.904 200.932 173.264 200.524C173.648 200.116 173.84 199.624 173.84 199.048C173.84 198.376 173.636 197.8 173.228 197.32C172.82 196.816 172.112 196.432 171.104 196.168C170.12 195.904 168.728 195.772 166.928 195.772V192.028C168.44 192.028 169.64 191.896 170.528 191.632C171.416 191.368 172.064 191.008 172.472 190.552C172.88 190.096 173.084 189.568 173.084 188.968C173.084 188.152 172.784 187.528 172.184 187.096C171.584 186.664 170.756 186.448 169.7 186.448C168.812 186.448 167.972 186.628 167.18 186.988C166.412 187.324 165.632 187.816 164.84 188.464L162.176 185.224C163.304 184.312 164.516 183.604 165.812 183.1C167.108 182.572 168.488 182.308 169.952 182.308C171.608 182.308 173.072 182.56 174.344 183.064C175.616 183.544 176.6 184.252 177.296 185.188C178.016 186.1 178.376 187.228 178.376 188.572C178.376 189.748 177.992 190.756 177.224 191.596C176.456 192.436 175.388 193.12 174.02 193.648V193.792C174.98 194.056 175.844 194.44 176.612 194.944C177.404 195.424 178.016 196.036 178.448 196.78C178.904 197.524 179.132 198.388 179.132 199.372C179.132 200.788 178.712 202 177.872 203.008C177.032 203.992 175.928 204.748 174.56 205.276C173.192 205.78 171.692 206.032 170.06 206.032ZM192.402 206.032C191.178 206.032 190.17 205.624 189.378 204.808C188.61 203.992 188.226 202.996 188.226 201.82C188.226 200.644 188.61 199.648 189.378 198.832C190.17 197.992 191.178 197.572 192.402 197.572C193.65 197.572 194.658 197.992 195.426 198.832C196.194 199.648 196.578 200.644 196.578 201.82C196.578 202.996 196.194 203.992 195.426 204.808C194.658 205.624 193.65 206.032 192.402 206.032ZM210.136 205.6C210.232 203.704 210.412 201.952 210.676 200.344C210.964 198.736 211.36 197.224 211.864 195.808C212.392 194.368 213.064 192.952 213.88 191.56C214.696 190.144 215.704 188.692 216.904 187.204H205.42V182.74H222.592V185.98C221.152 187.588 219.988 189.1 219.1 190.516C218.212 191.932 217.516 193.372 217.012 194.836C216.532 196.3 216.172 197.908 215.932 199.66C215.716 201.388 215.56 203.368 215.464 205.6H210.136Z" fill="white"/>
</g>
<defs>
<clipPath id="clip0_401_2">
<rect width="256" height="256" fill="white"/>
</clipPath>
</defs>
</svg>
